<?xml version="1.0" encoding="utf-8"?>
<!-- Generator: Adobe Illustrator 26.0.0, SVG Export Plug-In . SVG Version: 6.00 Build 0)  -->
<svg version="1.1" id="Capa_1" xmlns="http://www.w3.org/2000/svg" xmlns:xlink="http://www.w3.org/1999/xlink" x="0px" y="0px"
	 viewBox="0 0 1920 1080" style="enable-background:new 0 0 1920 1080;" xml:space="preserve">
<path d="M1627.96,410.88l-70.72,82.24l-69.44-82.24h-108.79l24.42,27.83c-21.87-21.33-64.24-31.99-127.13-31.99h-28.48
	c-21.55,0-40.48,1.33-56.8,4c-16.32,2.67-29.49,6.13-39.52,10.4c-10.03,4.27-18.13,9.6-24.32,16c-6.19,6.4-10.45,12.96-12.8,19.68
	c-2.35,6.72-3.52,14.24-3.52,22.56v2.88c0,45.65,38.93,69.55,116.79,71.68l44.16,1.28c16,0.43,28.21,1.65,36.64,3.68
	c8.42,2.03,13.76,4.37,16,7.04c2.24,2.67,3.36,6.24,3.36,10.72v0.32c0,3.2-0.7,6.03-2.08,8.48c-1.39,2.45-4,4.8-7.84,7.04
	c-3.84,2.24-9.81,3.95-17.92,5.12c-8.11,1.17-18.24,1.76-30.4,1.76h-2.88c-37.97,0-57.81-11.2-59.52-33.6h-99.83v3.2
	c0,6.82,0.72,13.22,2.14,19.21l-92.69-177.28H894.56L793.13,615.94v-26.52H616.82v-32.64h170.23v-57.92H616.82v-29.76h173.75v-58.24
	H540.98h-13.76h-85.75l-70.72,82.24l-69.44-82.24H192.52l130.23,148.47v89.59h90.87v-88.96l113.59-133v221.95h249.58h16.32h75.83
	l18.24-38.4h135.99l18.56,38.4h99.51l-16.59-31.73c21.9,24.14,64.54,36.21,127.94,36.21h29.12c24.1,0,45.17-1.55,63.2-4.64
	c18.02-3.09,32.32-7.14,42.88-12.16c10.56-5.01,19.04-11.2,25.44-18.56c6.4-7.36,10.67-14.61,12.8-21.76
	c2.13-7.15,3.2-15.09,3.2-23.84v-4.48c0-24.1-9.71-41.76-29.12-52.96c-19.41-11.2-51.63-17.44-96.63-18.72l-42.88-0.96
	c-14.29-0.21-25.39-1.22-33.28-3.04c-7.89-1.81-12.96-3.89-15.2-6.24c-2.24-2.34-3.36-5.33-3.36-8.96v-0.32
	c0-3.62,0.96-6.56,2.88-8.8c1.92-2.24,6.93-4.26,15.04-6.08c8.1-1.81,19.62-2.72,34.56-2.72h3.2c36.48,0,55.68,8.43,57.6,25.28
	h98.87v-2.56c0-13.96-3.74-25.97-11.22-36.05l99.54,113.48v89.59h90.88v-88.96l127.35-149.11H1627.96z M915.04,551.03l39.04-81.92
	l40,81.92H915.04z"/>
</svg>
