<?xml version="1.0" standalone="no"?>
<!DOCTYPE svg PUBLIC "-//W3C//DTD SVG 20010904//EN"
 "http://www.w3.org/TR/2001/REC-SVG-20010904/DTD/svg10.dtd">
<svg version="1.0" xmlns="http://www.w3.org/2000/svg"
 width="512.000000pt" height="512.000000pt" viewBox="0 0 512.000000 512.000000"
 preserveAspectRatio="xMidYMid meet">

<g transform="translate(0.000000,512.000000) scale(0.100000,-0.100000)"
fill="#000000" stroke="none">
<path d="M2908 4188 c-13 -10 -28 -102 -72 -423 -31 -225 -59 -419 -61 -430
-3 -15 -99 -71 -351 -205 l-346 -185 -57 -75 c-32 -41 -159 -214 -283 -385
l-227 -310 -78 -31 -78 -32 -3 67 c-1 36 -4 76 -7 89 l-5 22 -308 -2 -307 -3
-3 -669 c-1 -486 1 -673 9 -682 16 -19 588 -21 607 -2 8 8 12 52 12 130 l0
118 333 0 c360 0 409 6 510 56 83 42 129 86 200 192 89 133 92 135 93 59 1
-108 57 -182 160 -213 58 -17 118 -18 132 -1 6 6 22 59 37 117 14 58 30 122
36 142 l10 37 36 -21 c42 -25 159 -32 185 -10 9 7 34 87 58 185 24 95 44 173
45 175 1 1 130 -38 285 -88 156 -49 293 -90 305 -90 15 0 26 9 33 28 8 20 397
1273 580 1870 12 39 13 58 6 70 -7 11 -62 32 -145 55 -74 22 -136 41 -138 43
-2 2 5 39 16 83 25 96 17 115 -49 125 -40 6 -1074 191 -1128 202 -14 2 -33 -1
-42 -8z m672 -190 c250 -45 459 -85 463 -88 9 -8 -11 -100 -22 -100 -3 0 -159
43 -345 95 -186 53 -347 93 -357 90 -10 -4 -23 -23 -29 -43 -6 -20 -97 -340
-203 -709 l-193 -673 -73 -61 c-40 -34 -75 -59 -78 -55 -3 3 41 341 98 752 94
674 106 748 123 752 45 12 103 51 125 85 13 20 27 37 30 37 3 0 211 -36 461
-82z m239 -219 c388 -109 351 -95 351 -130 0 -43 22 -89 60 -126 l32 -31 -238
-771 -239 -771 -33 0 c-44 0 -100 -25 -137 -60 l-30 -29 -170 54 c-94 30 -216
69 -272 87 -57 17 -103 34 -103 37 1 3 37 35 81 71 162 131 195 185 187 302
-5 75 -47 142 -112 183 -40 24 -62 30 -123 33 -63 4 -73 7 -69 21 3 9 73 255
156 546 83 292 155 540 160 553 7 17 18 22 46 22 45 0 93 22 129 60 16 17 31
30 33 30 3 0 133 -36 291 -81z m-1065 -596 c-2 -16 -16 -109 -29 -207 -14 -98
-26 -180 -27 -182 -2 -1 -43 -19 -93 -39 -49 -20 -93 -40 -98 -44 -4 -4 -19
-128 -33 -275 -26 -279 -25 -296 15 -296 9 0 120 86 246 191 127 105 246 198
265 206 76 33 172 -2 210 -77 46 -90 16 -155 -125 -272 -55 -46 -118 -97 -140
-113 -111 -82 -343 -286 -446 -391 -63 -66 -143 -160 -176 -210 -69 -103 -106
-137 -179 -170 -90 -40 -150 -45 -479 -42 l-310 3 -3 63 -3 62 225 0 c191 0
227 2 240 16 19 19 20 25 4 47 -11 15 -41 17 -238 19 l-225 3 0 274 0 275 105
42 105 41 275 376 c151 207 280 381 287 388 13 13 613 337 625 338 4 1 5 -11
2 -26z m-74 -517 c0 -14 -9 -87 -20 -163 l-20 -138 -41 -37 c-48 -44 -61 -47
-55 -15 3 12 10 78 16 147 16 196 15 193 58 212 52 23 62 22 62 -6z m-1412
-1058 l-3 -603 -230 0 -230 0 -3 603 -2 602 235 0 235 0 -2 -602z m1763 342
c45 -14 69 -26 69 -36 0 -8 -16 -80 -36 -159 l-36 -145 -35 0 c-95 0 -122 61
-105 232 8 74 13 91 33 108 30 24 28 24 110 0z m-229 -192 c-3 -67 -15 -137
-44 -253 -23 -88 -42 -161 -43 -162 -7 -11 -86 26 -112 52 -29 29 -33 39 -33
86 0 30 10 87 22 127 20 71 25 77 112 158 50 46 93 84 96 84 3 0 4 -42 2 -92z"/>
<path d="M3511 3229 c-150 -29 -251 -146 -259 -298 -5 -89 8 -139 53 -206 139
-204 447 -180 557 42 28 58 33 77 33 143 0 163 -106 289 -270 319 -32 6 -61
11 -64 10 -3 -1 -26 -5 -50 -10z m164 -103 c55 -25 98 -69 120 -123 19 -45 19
-143 1 -187 -55 -133 -228 -187 -352 -110 -159 98 -149 335 17 418 69 34 144
35 214 2z"/>
<path d="M973 1340 c-63 -38 -63 -142 0 -180 92 -57 200 25 167 126 -22 67
-103 93 -167 54z"/>
</g>
</svg>
