<svg version="1.2" xmlns="http://www.w3.org/2000/svg" viewBox="0 0 1552 247" width="1552" height="247"><style></style><path fill-rule="evenodd" d="m1442 5.8h99.5l-127.4 149.1v89h-90.9v-89.6l-99.5-113.5q11.2 15.1 11.2 36.1v2.5h-98.9q-2.8-25.2-57.6-25.2h-3.2q-22.4 0-34.5 2.7-12.2 2.7-15.1 6.1-2.8 3.3-2.8 8.8v0.3q0 5.4 3.3 8.9 3.4 3.6 15.2 6.3 11.9 2.7 33.3 3l42.9 1q67.5 1.9 96.6 18.7 29.1 16.8 29.1 53v4.4q0 13.2-3.2 23.9-3.2 10.7-12.8 21.7-9.6 11.1-25.4 18.6-15.9 7.5-42.9 12.2-27 4.6-63.2 4.6h-29.1q-95.1 0-127.9-36.2l16.5 31.7h-99.5l-18.5-38.4h-136l-18.3 38.4h-341.7v-221.9l-113.6 133v88.9h-90.8v-89.6l-130.3-148.4h108.8l69.5 82.2 70.7-82.2h349.1v58.2h-173.8v29.8h170.3v57.9h-170.3v32.6h176.3v26.5l101.5-205h122.2l92.7 177.3q-2.2-9-2.2-19.2v-3.2h99.9q2.5 33.6 59.5 33.6h2.9q18.2 0 30.4-1.8 12.1-1.8 17.9-5.1 5.7-3.4 7.8-7.1 2.1-3.6 2.1-8.4v-0.4q0-6.7-3.3-10.7-3.4-4-16-7-12.7-3.1-36.7-3.7l-44.1-1.3q-116.8-3.2-116.8-71.7v-2.8q0-12.5 3.5-22.6 3.5-10.1 12.8-19.7 9.3-9.6 24.3-16 15-6.4 39.5-10.4 24.5-4 56.8-4h28.5q94.3 0 127.1 32l-24.4-27.8h108.8l69.4 82.2 70.8-82.2zm-633.9 140.2l-40-81.9-39.1 81.9z"/></svg>